<svg width="180" height="132" viewBox="0 0 180 132" fill="none" xmlns="http://www.w3.org/2000/svg">
<g clip-path="url(#clip0_3534_51710)">
<g filter="url(#filter0_d_3534_51710)">
<path d="M5.75781 47.8307L5.75781 120.756C5.75781 125.777 9.67006 129.848 14.4961 129.848L166.22 129.848C171.046 129.848 174.958 125.777 174.958 120.756L174.958 47.8307C174.958 42.8095 171.046 38.739 166.22 38.739L14.4961 38.739C9.67006 38.739 5.75781 42.8095 5.75781 47.8307Z" fill="black"/>
<mask id="mask0_3534_51710" style="mask-type:alpha" maskUnits="userSpaceOnUse" x="5" y="38" width="170" height="92">
<path d="M5.97427 120.756L5.97427 47.8307C5.97427 42.9209 9.79761 38.9554 14.4961 38.9554L166.22 38.9554C170.918 38.9554 174.741 42.9209 174.741 47.8307L174.741 120.756C174.741 125.666 170.918 129.631 166.22 129.631L14.4961 129.631C9.79762 129.631 5.97427 125.666 5.97427 120.756Z" fill="#FFF091" stroke="#FFFCE4" stroke-width="0.432919"/>
</mask>
<g mask="url(#mask0_3534_51710)">
<g opacity="0.5">
<path d="M24.0302 124.292L16.6596 129.964L24.4472 142.287L35.8978 140.021L24.0302 124.292Z" fill="#434343"/>
<path d="M40.2825 113.413L27.9712 121.7L44.4418 141.824L56.4386 141.546L40.2825 113.413Z" fill="#434343"/>
<path d="M56.2301 132.548L60.8911 139.442L80.3858 138.99L75.6438 128.597L56.2301 132.548Z" fill="#434343"/>
<path d="M43.7236 110.832L53.6497 129.107L62.5777 125.899L50.5827 104.672L43.7236 110.832Z" fill="#434343"/>
<path d="M72.052 124.679L67.5532 124.784L52.0591 103.637L55.4887 100.557L72.052 124.679Z" fill="#434343"/>
</g>
<g opacity="0.2">
<circle cx="55.5" cy="55.5" r="2.5" fill="#C4C4C4"/>
<circle cx="63.5" cy="45.5" r="2.5" fill="#C4C4C4"/>
<circle cx="50.5" cy="39.5" r="2.5" fill="#C4C4C4"/>
<circle cx="57.5" cy="63.5" r="1.5" fill="#C4C4C4"/>
<circle cx="62.5" cy="54.5" r="1.5" fill="#C4C4C4"/>
<circle cx="58" cy="40" r="1" fill="#C4C4C4"/>
<circle cx="51" cy="46" r="1" fill="#C4C4C4"/>
<circle cx="42" cy="43" r="1" fill="#C4C4C4"/>
</g>
<path d="M53.2773 22.2386L151.217 151.482" stroke="#F5F5F5" stroke-width="4.53266" stroke-miterlimit="10"/>
<path d="M11.5195 25.8256L109.459 155.076" stroke="#F5F5F5" stroke-width="4.53266" stroke-miterlimit="10"/>
<path d="M1.4375 127.525L116.172 49.7684C118.05 48.4998 120.329 47.962 122.578 48.257C124.827 48.552 126.889 49.6594 128.372 51.3689L149.994 76.356C159.855 87.7352 170.591 89.3087 182.371 79.9149L239.305 39.6318" stroke="#F5F5F5" stroke-width="4.53266" stroke-miterlimit="10"/>
<g opacity="0.6">
<path d="M20 54.5L14.5 47L2 54.5L4 66L20 54.5Z" fill="#434343"/>
<path d="M30.5 71L22.5 58.5L2 74.5V86.5L30.5 71Z" fill="#434343"/>
<path d="M11 86.5L4 91V110.5L14.5 106L11 86.5Z" fill="#434343"/>
<path d="M33 74.5L14.5 84L17.5 93L39 81.5L33 74.5Z" fill="#434343"/>
<path d="M18.5 102.5V98L40 83L43 86.5L18.5 102.5Z" fill="#434343"/>
</g>
</g>
</g>
<g filter="url(#filter1_d_3534_51710)">
<path d="M162.821 27.874C162.824 25.6271 162.315 23.409 161.333 21.3864C160.351 19.3638 158.921 17.5896 157.151 16.1971C155.382 14.8046 153.318 13.8302 151.116 13.3473C148.913 12.8643 146.63 12.8854 144.437 13.4088C142.244 13.9323 140.199 14.9445 138.455 16.3693C136.711 17.7941 135.315 19.5945 134.371 21.6348C133.426 23.6751 132.959 25.9023 133.003 28.1487C133.047 30.3951 133.602 32.6022 134.626 34.6039L134.745 34.822C134.798 34.9281 134.857 35.0282 134.916 35.1284L147.928 58.5654L160.94 35.0872C160.988 35.0106 161.029 34.934 161.07 34.8515L161.136 34.7454C162.249 32.6253 162.828 30.2669 162.821 27.874ZM147.911 32.6592C146.733 32.6592 145.581 32.3112 144.602 31.6591C143.622 31.007 142.859 30.0802 142.408 28.9958C141.957 27.9115 141.839 26.7182 142.069 25.5671C142.299 24.4159 142.866 23.3585 143.699 22.5286C144.532 21.6987 145.593 21.1334 146.749 20.9045C147.904 20.6755 149.102 20.793 150.19 21.2422C151.278 21.6913 152.208 22.452 152.863 23.4279C153.517 24.4038 153.867 25.5511 153.867 26.7248C153.867 28.2987 153.239 29.8082 152.122 30.9211C151.005 32.034 149.49 32.6592 147.911 32.6592Z" fill="#FECE00"/>
</g>
<g opacity="0.4">
<path d="M123.5 60.5L104.5 73L110 83.5L132 70.5L123.5 60.5Z" fill="#7B7B7B"/>
<path d="M137.5 74.5L114.5 90.5L122.5 101.5L148 85.5L137.5 74.5Z" fill="#7B7B7B"/>
<path d="M134.5 99L125.5 104.5L136.5 121L148 116L134.5 99Z" fill="#7B7B7B"/>
<path d="M142 101.5L138.5 97L150.5 88.5L154.5 93L142 101.5Z" fill="#7B7B7B"/>
<path d="M152 115L146 107L161 92C165.302 95.1619 167.705 94.5666 172 93V99L152 115Z" fill="#7B7B7B"/>
</g>
</g>
<defs>
<filter id="filter0_d_3534_51710" x="1.05381" y="31.6823" width="184.879" height="106.789" filterUnits="userSpaceOnUse" color-interpolation-filters="sRGB">
<feFlood flood-opacity="0" result="BackgroundImageFix"/>
<feColorMatrix in="SourceAlpha" type="matrix" values="0 0 0 0 0 0 0 0 0 0 0 0 0 0 0 0 0 0 127 0" result="hardAlpha"/>
<feOffset dx="3.136" dy="0.784"/>
<feGaussianBlur stdDeviation="3.92"/>
<feComposite in2="hardAlpha" operator="out"/>
<feColorMatrix type="matrix" values="0 0 0 0 0 0 0 0 0 0 0 0 0 0 0 0 0 0 0.08 0"/>
<feBlend mode="normal" in2="BackgroundImageFix" result="effect1_dropShadow_3534_51710"/>
<feBlend mode="normal" in="SourceGraphic" in2="effect1_dropShadow_3534_51710" result="shape"/>
</filter>
<filter id="filter1_d_3534_51710" x="129.4" y="7.60042" width="41.8194" height="57.5655" filterUnits="userSpaceOnUse" color-interpolation-filters="sRGB">
<feFlood flood-opacity="0" result="BackgroundImageFix"/>
<feColorMatrix in="SourceAlpha" type="matrix" values="0 0 0 0 0 0 0 0 0 0 0 0 0 0 0 0 0 0 127 0" result="hardAlpha"/>
<feOffset dx="2.39981" dy="0.599953"/>
<feGaussianBlur stdDeviation="2.99976"/>
<feComposite in2="hardAlpha" operator="out"/>
<feColorMatrix type="matrix" values="0 0 0 0 0 0 0 0 0 0 0 0 0 0 0 0 0 0 0.08 0"/>
<feBlend mode="normal" in2="BackgroundImageFix" result="effect1_dropShadow_3534_51710"/>
<feBlend mode="normal" in="SourceGraphic" in2="effect1_dropShadow_3534_51710" result="shape"/>
</filter>
<clipPath id="clip0_3534_51710">
<rect width="180" height="132" fill="white"/>
</clipPath>
</defs>
</svg>
